<svg xmlns="http://www.w3.org/2000/svg" xmlns:xlink="http://www.w3.org/1999/xlink" viewBox="0 0 500 500"><defs><clipPath id="freepik--clip-path--inject-1--inject-1"><polygon points="304.28 153.73 297 158 301 159 299.66 181.34 280.66 192.32 280.66 147.41 306.58 132.44 306.58 152.4 304.28 153.73" style="fill:none"></polygon></clipPath></defs><g id="freepik--Floor--inject-1--inject-1"><path d="M113.34,384.68c82,48.43,215,48.43,297,0s82-126.94,0-175.36-215-48.43-297,0S31.31,336.26,113.34,384.68Z" style="fill:#fafafa"></path></g><g id="freepik--Plants--inject-1--inject-1"><path d="M434,205.77c.45-5.62,4.78-15.2,11.19-22s16.67-10.12,23-7.37c5.9,2.57,4.6,10.47-3.18,15.14s-19.36,10.41-23.33,19.26L434,221.42Z" style="fill:#08BC3D"></path><path d="M434,205.77c.45-5.62,4.78-15.2,11.19-22s16.67-10.12,23-7.37c5.9,2.57,4.6,10.47-3.18,15.14s-19.36,10.41-23.33,19.26L434,221.42Z" style="opacity:0.2"></path><path d="M465.74,179c-7.35,1.4-28.89,15.27-31.71,36.21" style="fill:none;stroke:#fff;stroke-linecap:round;stroke-miterlimit:10"></path><path d="M434.87,231C436,228,440.92,222.43,448,219.7s12.42-5.17,15-9.57-1.91-8.72-9.06-8.41-19.06,7.8-19.9,19.7Z" style="fill:#08BC3D"></path><path d="M457.58,205.28c-6.18.61-21.2,9.72-23.22,19.92" style="fill:none;stroke:#fff;stroke-linecap:round;stroke-miterlimit:10"></path><path d="M65.5,259.56a64.75,64.75,0,0,0-5.21-23.07c-5.27-12.49-15.93-19.1-21.61-20s-11.55,6-4.32,14.2,21.09,19.18,25.07,35.79l6.51,11.34Z" style="fill:#08BC3D"></path><path d="M65.5,259.56a64.75,64.75,0,0,0-5.21-23.07c-5.27-12.49-15.93-19.1-21.61-20s-11.55,6-4.32,14.2,21.09,19.18,25.07,35.79l6.51,11.34Z" style="opacity:0.2"></path><path d="M38.68,220.3c11.66,6.94,25.17,25.15,27.06,49.35" style="fill:none;stroke:#fff;stroke-linecap:round;stroke-linejoin:round"></path><path d="M64.61,289.45C63,283,58.79,276.71,50.38,270.39s-19.65-11.75-18.73-18.2,9.44-6,15.68-3.15,17.06,14.58,18.61,28.76Z" style="fill:#08BC3D"></path><path d="M37.55,250.17c8.1,2,25.48,17.9,28,31.44" style="fill:none;stroke:#fff;stroke-linecap:round;stroke-linejoin:round"></path></g><g id="freepik--image-folder--inject-1--inject-1"><path d="M66.91,293.43a5.08,5.08,0,0,1-2.3-4V145.08a5.1,5.1,0,0,1,2.3-4l51.57-29.77a4.33,4.33,0,0,1,6.62,3.83v9.64c0,1.47,1,2.07,2.31,1.33l64.53-37.25a4.33,4.33,0,0,1,6.62,3.82V314.56L151,342Z" style="fill:#263238"></path><path d="M196.4,88.79a4.91,4.91,0,0,0-4.46.08l-64.53,37.25c-1.28.74-2.31.14-2.31-1.33v-9.64a4.33,4.33,0,0,0-6.62-3.83L66.91,141.09a4.83,4.83,0,0,0-1.63,1.72l29.58,17.08L198.56,100V92.69A4.93,4.93,0,0,0,196.4,88.79Z" style="fill:#455a64"></path><path d="M196.26,91.36l-68.85,39.75c-1.28.74-2.31.14-2.31-1.33V115.15c0-1.47-1-2.07-2.3-1.33L71.23,143.59a5.09,5.09,0,0,0-2.3,4V287a5.07,5.07,0,0,0,2.31,4l84.11,48.56,43.21-24.94V92.69C198.56,91.22,197.53,90.63,196.26,91.36Z" style="fill:#37474f"></path><path d="M69.61,289.22a4.66,4.66,0,0,0,1.63,1.72l84.11,48.56,43.21-24.94V214.77Z" style="fill:#263238"></path><path d="M80.05,321l-.63-.36a4.08,4.08,0,0,1-1.85-3.19V182a4.05,4.05,0,0,1,1.85-3.19l138.9-80.2a4.07,4.07,0,0,1,3.69,0l.63.37a4.05,4.05,0,0,1,1.85,3.19V237.59a4.08,4.08,0,0,1-1.85,3.19L83.74,321A4.07,4.07,0,0,1,80.05,321Z" style="fill:#f5f5f5"></path><path d="M86.21,184.83l-8.1-4.68a3.82,3.82,0,0,0-.54,1.82V317.42a4.08,4.08,0,0,0,1.85,3.19l.63.36a4.07,4.07,0,0,0,3.69,0l2.47-1.43Z" style="fill:#e0e0e0"></path><path d="M81.9,319.91V184.46a4.07,4.07,0,0,1,1.84-3.19l138.9-80.2c1-.58,1.85-.11,1.85,1.07V237.59a4.08,4.08,0,0,1-1.85,3.19L83.74,321C82.72,321.56,81.9,321.09,81.9,319.91Z" style="fill:#ebebeb"></path><path d="M92.84,186l120.7-69.68c1.27-.74,2.3-.14,2.3,1.33V222.09a5.08,5.08,0,0,1-2.3,4L92.84,295.76c-1.27.74-2.3.14-2.3-1.33V190A5.1,5.1,0,0,1,92.84,186Z" style="fill:#fff"></path><path d="M112.79,180.79c7.52-4.34,13.61-.82,13.61,7.86s-6.09,19.23-13.61,23.57-13.61.83-13.61-7.85S105.27,185.13,112.79,180.79Z" style="fill:#08BC3D"></path><path d="M125.4,212.27a6.19,6.19,0,0,1,9.92-1.36L151,227.24l29.8-73.11a6.19,6.19,0,0,1,11.09-.76l23.93,41.44v27.28a5.08,5.08,0,0,1-2.3,4L92.84,295.76c-1.27.74-2.3.14-2.3-1.33v-17.3Z" style="fill:#08BC3D"></path><path d="M106,336l-.64-.37a4.07,4.07,0,0,1-1.84-3.19V196.94a4.07,4.07,0,0,1,1.84-3.19l138.91-80.19a4,4,0,0,1,3.68,0l.64.36a4.07,4.07,0,0,1,1.84,3.19V252.56a4,4,0,0,1-1.84,3.19L109.66,336A4,4,0,0,1,106,336Z" style="fill:#f5f5f5"></path><path d="M112.14,199.81l-8.1-4.68a3.81,3.81,0,0,0-.54,1.81V332.39a4.07,4.07,0,0,0,1.84,3.19l.64.37a4,4,0,0,0,3.68,0l2.48-1.43Z" style="fill:#e0e0e0"></path><path d="M107.82,334.89V199.44a4.08,4.08,0,0,1,1.84-3.19l138.91-80.2c1-.59,1.84-.11,1.84,1.06V252.56a4,4,0,0,1-1.84,3.19L109.66,336C108.65,336.54,107.82,336.06,107.82,334.89Z" style="fill:#ebebeb"></path><path d="M118.77,201l120.7-69.69c1.27-.73,2.3-.13,2.3,1.33V237.06a5.09,5.09,0,0,1-2.3,4l-120.7,69.69c-1.28.73-2.31.14-2.31-1.33V205A5.08,5.08,0,0,1,118.77,201Z" style="fill:#fff"></path><path d="M138.72,195.77c7.51-4.34,13.61-.82,13.61,7.86s-6.1,19.23-13.61,23.57-13.61.82-13.61-7.86S131.2,200.11,138.72,195.77Z" style="fill:#08BC3D"></path><path d="M151.33,227.25a6.18,6.18,0,0,1,9.91-1.36L177,242.22l29.79-73.11a6.19,6.19,0,0,1,11.1-.76l23.92,41.44v27.27a5.09,5.09,0,0,1-2.3,4l-120.7,69.69c-1.28.73-2.31.14-2.31-1.33v-17.3Z" style="fill:#08BC3D"></path><path d="M131.9,350.91l-.63-.36a4.07,4.07,0,0,1-1.84-3.19V211.91a4.05,4.05,0,0,1,1.85-3.19l138.9-80.2a4.07,4.07,0,0,1,3.69,0l.63.37a4.05,4.05,0,0,1,1.85,3.19V267.53a4.08,4.08,0,0,1-1.85,3.19l-138.9,80.19A4.07,4.07,0,0,1,131.9,350.91Z" style="fill:#f5f5f5"></path><path d="M138.07,214.77,130,210.09a3.82,3.82,0,0,0-.54,1.82V347.36a4.07,4.07,0,0,0,1.84,3.19l.63.36a4.07,4.07,0,0,0,3.69,0l2.48-1.43Z" style="fill:#e0e0e0"></path><path d="M133.75,349.85V214.4a4.07,4.07,0,0,1,1.84-3.19L274.49,131c1-.58,1.85-.11,1.85,1.07V267.53a4.08,4.08,0,0,1-1.85,3.19l-138.9,80.19C134.57,351.5,133.75,351,133.75,349.85Z" style="fill:#ebebeb"></path><path d="M144.69,215.93l120.7-69.68c1.27-.74,2.3-.14,2.3,1.33V252a5.09,5.09,0,0,1-2.3,4L144.69,325.7c-1.27.74-2.3.14-2.3-1.33V219.92A5.1,5.1,0,0,1,144.69,215.93Z" style="fill:#fff"></path><path d="M164.64,210.73c7.52-4.34,13.61-.82,13.61,7.86s-6.09,19.23-13.61,23.57S151,243,151,234.31,157.12,215.07,164.64,210.73Z" style="fill:#08BC3D"></path><path d="M177.25,242.21a6.19,6.19,0,0,1,9.92-1.36l15.71,16.33,29.8-73.11a6.19,6.19,0,0,1,11.09-.76l23.93,41.44V252a5.12,5.12,0,0,1-2.31,4L144.69,325.7c-1.27.74-2.3.14-2.3-1.33v-17.3Z" style="fill:#08BC3D"></path><polygon points="155.35 339.5 168.31 332.02 168.31 346.99 155.35 339.5" style="fill:#263238"></polygon><path d="M168.31,234.89V344.33c0,1.47-1,2.06-2.3,1.33l-10.66-6.16L151,342l19.3,11.14a5.06,5.06,0,0,0,4.61,0L308.6,276a5.1,5.1,0,0,0,2.31-4V157.56a4.34,4.34,0,0,0-6.63-3.83L170.62,230.9A5.08,5.08,0,0,0,168.31,234.89Z" style="fill:#263238"></path><path d="M177,237.22l134-77.33v-2.33a4.34,4.34,0,0,0-6.63-3.83L170.62,230.9a4.66,4.66,0,0,0-1.63,1.72Z" style="fill:#455a64"></path><path d="M308.6,156.23,174.94,233.4a5.1,5.1,0,0,0-2.31,4V351.81c0,1.47,1,2.07,2.31,1.33L308.6,276a5.1,5.1,0,0,0,2.31-4V157.56C310.91,156.09,309.87,155.49,308.6,156.23Z" style="fill:#37474f"></path><path d="M208.22,304.27a1.42,1.42,0,0,1-.73-.19,1.77,1.77,0,0,1-.79-1.63V246.83a4.57,4.57,0,0,1,2.09-3.62l65.46-37.79a1.61,1.61,0,0,1,2.59,1.5v55.62a4.57,4.57,0,0,1-2.09,3.62L209.29,304A2.16,2.16,0,0,1,208.22,304.27Zm67.1-98.17a1.1,1.1,0,0,0-.57.19l-65.46,37.78h0a3.6,3.6,0,0,0-1.59,2.76v55.62a.86.86,0,0,0,.29.76.83.83,0,0,0,.8-.13l65.46-37.79a3.57,3.57,0,0,0,1.59-2.75V206.92a.85.85,0,0,0-.29-.76A.44.44,0,0,0,275.32,206.1ZM209,243.64h0Z" style="fill:#fafafa"></path><path d="M218.77,256.37a3.24,3.24,0,0,1-1.63-.42,4.19,4.19,0,0,1-1.8-3.86,12.27,12.27,0,0,1,5.54-9.59,3.71,3.71,0,0,1,6,3.49,12.24,12.24,0,0,1-5.54,9.59A5.35,5.35,0,0,1,218.77,256.37Zm4.72-13.66a4.32,4.32,0,0,0-2.11.66,11.13,11.13,0,0,0-5,8.72,2.74,2.74,0,0,0,4.54,2.62,11.14,11.14,0,0,0,5-8.72,3.24,3.24,0,0,0-1.3-3A2.14,2.14,0,0,0,223.49,242.71Z" style="fill:#fafafa"></path><path d="M207.2,300.09A.53.53,0,0,1,207,300a.49.49,0,0,1-.21-.67l19.38-38.05a4.12,4.12,0,0,1,6.54-1.1l19.16,18.44a.49.49,0,0,1,0,.7.5.5,0,0,1-.71,0L232,260.93a3.13,3.13,0,0,0-4.95.83l-19.38,38.06A.51.51,0,0,1,207.2,300.09Z" style="fill:#fafafa"></path><path d="M241.77,270.15a.48.48,0,0,1-.2,0,.5.5,0,0,1-.26-.65l15-34.68a4,4,0,0,1,6.75-1l13.64,16.49a.49.49,0,0,1-.06.7A.51.51,0,0,1,276,251l-13.64-16.49a3,3,0,0,0-5.07.72l-15,34.67A.5.5,0,0,1,241.77,270.15Z" style="fill:#fafafa"></path><g style="clip-path:url(#freepik--clip-path--inject-1--inject-1)"><path d="M290.86,181.6c-3.09,0-5.16-1.85-5.16-4.6l.27-17.34c0-4.73,0-11.91,5.28-15a7.2,7.2,0,0,1,11.06,6.11c0,1.39-.05,3.09-.13,5.06a1.48,1.48,0,0,1-1.56,1.44,1.5,1.5,0,0,1-1.43-1.57c.07-1.89.12-3.6.12-4.93a4.2,4.2,0,0,0-6.56-3.51c-3.49,2-3.78,7-3.78,12.38L288.7,177c0,1.3,1.17,1.58,2.16,1.58a6.29,6.29,0,0,0,6.14-6.23l-.11-6.85a1.5,1.5,0,1,1,3,0l.11,6.86A9.21,9.21,0,0,1,290.86,181.6Z" style="fill:#08BC3D"></path></g></g><g id="freepik--Photo--inject-1--inject-1"><path d="M313.38,288.18,209.05,348.42a4.08,4.08,0,0,0-1.85,3.19v.73a4.09,4.09,0,0,0,1.85,3.2L296.1,405.8a4.07,4.07,0,0,0,3.69,0l104.33-60.24a4.08,4.08,0,0,0,1.85-3.19v-.74a4.08,4.08,0,0,0-1.85-3.19l-87.05-50.26A4.07,4.07,0,0,0,313.38,288.18Z" style="fill:#455a64"></path><path d="M207.2,351.61v.73a4.09,4.09,0,0,0,1.85,3.2L296.1,405.8a3.82,3.82,0,0,0,1.84.44v-9.36L211.52,347l-2.47,1.43A4.08,4.08,0,0,0,207.2,351.61Z" style="fill:#263238"></path><path d="M209.05,348.42l104.33-60.24a4.07,4.07,0,0,1,3.69,0l87.05,50.26a1.12,1.12,0,0,1,0,2.13L299.79,400.81a4.07,4.07,0,0,1-3.69,0l-87.05-50.26A1.12,1.12,0,0,1,209.05,348.42Z" style="fill:#37474f"></path><path d="M222,350.55l67.61,39a4,4,0,0,0,3.68,0l91.38-52.75a1.12,1.12,0,0,0,0-2.13l-67.61-39a4.13,4.13,0,0,0-3.69,0L222,348.42A1.12,1.12,0,0,0,222,350.55Z" style="fill:#fff"></path><path d="M242.85,342.3c4.77-2.75,12.51-2.75,17.28,0s4.78,7.22,0,10-12.51,2.75-17.28,0S238.08,345.06,242.85,342.3Z" style="fill:#08BC3D"></path><path d="M384.68,334.7l-19.76-11.41-60-5.59a4.28,4.28,0,0,0-4.37,5.85l10.36,25.93-33-1.88a4.27,4.27,0,0,0-4.46,5l5.08,30.59h0l11.12,6.42a4,4,0,0,0,3.68,0l91.38-52.75A1.12,1.12,0,0,0,384.68,334.7Z" style="fill:#08BC3D"></path></g><g id="freepik--Boxes--inject-1--inject-1"><polygon points="384.36 262.17 384.36 222.25 436.21 192.32 436.21 232.23 384.36 262.17" style="fill:#ebebeb"></polygon><polygon points="384.36 222.25 319.54 184.83 319.54 224.75 384.36 262.17 384.36 222.25" style="fill:#e6e6e6"></polygon><polygon points="384.36 222.25 437.75 191.42 371.39 153.1 318.01 183.94 384.36 222.25" style="fill:#f0f0f0"></polygon><polygon points="384.36 222.25 384.36 232.23 437.75 201.41 437.75 191.42 384.36 222.25" style="fill:#ebebeb"></polygon><polygon points="384.36 232.23 436.21 202.3 436.21 204.49 384.36 234.43 384.36 232.23" style="fill:#e6e6e6"></polygon><polygon points="318.01 183.94 384.36 222.25 384.36 232.23 318.01 193.92 318.01 183.94" style="fill:#ebebeb"></polygon><polygon points="384.36 232.23 319.54 194.81 319.54 197.01 384.36 234.43 384.36 232.23" style="fill:#e0e0e0;opacity:0.5;mix-blend-mode:multiply"></polygon><path d="M401.43,228.32l17.71-10.23c.76-.44,1.38-.08,1.38.8v10.47a3.06,3.06,0,0,1-1.38,2.4L401.43,242c-.77.44-1.38.09-1.38-.79V230.71A3,3,0,0,1,401.43,228.32Z" style="fill:#e0e0e0"></path><path d="M402.56,229.51,418,220.59c.51-.29.93-.05.93.53V229a2,2,0,0,1-.93,1.6l-15.44,8.92c-.51.29-.92,0-.92-.54V231.1A2,2,0,0,1,402.56,229.51Z" style="fill:#fff"></path><polygon points="384.36 217.24 384.36 177.32 436.21 147.38 436.21 187.3 384.36 217.24" style="fill:#ebebeb"></polygon><polygon points="384.36 177.32 319.54 139.9 319.54 179.82 384.36 217.24 384.36 177.32" style="fill:#e6e6e6"></polygon><polygon points="384.36 177.32 437.75 146.48 371.39 108.17 318.01 139 384.36 177.32" style="fill:#f5f5f5"></polygon><polygon points="384.36 177.32 384.36 187.3 437.75 156.48 437.75 146.48 384.36 177.32" style="fill:#ebebeb"></polygon><polygon points="384.36 187.3 436.21 157.36 436.21 159.56 384.36 189.49 384.36 187.3" style="fill:#e6e6e6"></polygon><polygon points="318.01 139 384.36 177.32 384.36 187.3 318.01 148.99 318.01 139" style="fill:#ebebeb"></polygon><polygon points="384.36 187.3 319.54 149.88 319.54 152.07 384.36 189.49 384.36 187.3" style="fill:#e0e0e0;opacity:0.5;mix-blend-mode:multiply"></polygon><path d="M401.43,183.39l17.71-10.23c.76-.44,1.38-.08,1.38.8v10.47a3.09,3.09,0,0,1-1.38,2.4l-17.71,10.22c-.77.44-1.38.08-1.38-.8V185.78A3,3,0,0,1,401.43,183.39Z" style="fill:#e0e0e0"></path><path d="M402.56,184.57,418,175.66c.51-.29.93-.06.93.53V184a2.06,2.06,0,0,1-.93,1.6l-15.44,8.91c-.51.3-.92.06-.92-.53v-7.85A2,2,0,0,1,402.56,184.57Z" style="fill:#fff"></path><polygon points="433.41 188.91 384.36 217.24 322.34 181.41 320.82 182.31 384.36 218.87 434.94 189.79 433.41 188.91" style="fill:#e0e0e0"></polygon></g></svg>